<svg width="200" height="200" viewBox="0 0 140 150" xmlns="http://www.w3.org/2000/svg">
  <!-- Fondo oscuro para resaltar el icono blanco -->
  <rect width="200" height="200" fill="#111" />

  <g transform="translate(5, 5)">
    <!-- Forma de 'coma' o pincelada envolvente basada en tus acercamientos -->
    <path d="M 25 55 
             C 25 35, 45 15, 70 15 
             C 105 15, 130 45, 130 75 
             C 130 115, 95 140, 55 140 
             C 20 140, -5 110, -5 75 
             C -5 50, 10 30, 25 20 
             L 28 28 
             C 18 35, 8 55, 8 75 
             C 8 102, 28 128, 55 128 
             C 85 128, 115 108, 115 75 
             C 115 50, 95 28, 70 28 
             C 55 28, 42 38, 38 48 
             L 25 55 Z" fill="white" />
    
    <!-- Círculo central independiente -->
    <circle cx="62" cy="78" r="18" fill="white" />
  </g>
</svg>